<svg id="Layer_1" data-name="Layer 1" xmlns="http://www.w3.org/2000/svg" viewBox="0 0 2069.37 1324.17"><defs><style>.cls-1,.cls-2,.cls-3,.cls-4,.cls-5,.cls-6,.cls-7{fill:none;stroke-linejoin:round;stroke-width:30px;}.cls-1{stroke:#eceff4;}.cls-2{stroke:#e5e9f0;}.cls-3{stroke:#d8dee9;}.cls-4{stroke:#f6ae9f;}.cls-5{stroke:#cfcfaf;}.cls-6{stroke:#89c7aa;}.cls-7{stroke:#05203d;}</style></defs><title>background</title><g id="Patterns"><g id="Hinterrhein"><g id="Shape"><path class="cls-1" d="M1149,1180a50.9,50.9,0,0,1,0-101.8" transform="translate(62.66 129.17)"/><ellipse class="cls-1" cx="1931.86" cy="123.84" rx="41.15" ry="40.61"/><path class="cls-2" d="M1896.28,178.24h39.58c26.59,0,48.14-20.61,48.14-46s-21.55-46-48.14-46H1856.7c-26.59,0-48.14,20.61-48.14,46" transform="translate(62.66 129.17)"/><path class="cls-3" d="M1901.69,217.22V306c0,38.27-31.31,69.3-70,69.3h-54.59" transform="translate(62.66 129.17)"/><path class="cls-1" d="M1744.66,228.38a51.44,51.44,0,0,1,102.88,0v37.25a51.44,51.44,0,0,1-102.88,0Z" transform="translate(62.66 129.17)"/><path class="cls-2" d="M893.25,1078.74a42.33,42.33,0,1,0,84.65,0c0-23.62-18.94-42.78-42.32-42.78H793.8" transform="translate(62.66 129.17)"/><path class="cls-1" d="M715.6,1095.53H823.26a40.07,40.07,0,0,1,0,80.14H715.6a40.07,40.07,0,0,1,0-80.14Z" transform="translate(62.66 129.17)"/><path class="cls-1" d="M241.52,1078.28c-17.35,0-31.42-13.82-31.42-30.86s14.07-30.87,31.42-30.87h33.55" transform="translate(62.66 129.17)"/><ellipse class="cls-2" cx="116.26" cy="1209.62" rx="44.94" ry="44.4"/><path class="cls-3" d="M148.37,1079.37c0-55-43.89-99.64-98-99.64s-98,44.61-98,99.64,43.89,99.63,98,99.63" transform="translate(62.66 129.17)"/><path class="cls-3" d="M315.15,1016.55H356.2c27.57,0,49.92-21.33,49.92-47.65s-22.35-47.65-49.92-47.65H274.09c-27.57,0-49.92,21.33-49.92,47.65" transform="translate(62.66 129.17)"/><path class="cls-3" d="M149.45,948.32c0-50.23,40.55-91,90.58-91" transform="translate(62.66 129.17)"/><path class="cls-4" d="M98,948.32" transform="translate(62.66 129.17)"/><path class="cls-5" d="M1242.55,1008.89" transform="translate(62.66 129.17)"/><path class="cls-1" d="M1333.64,1110.69l.06,32.49" transform="translate(62.66 129.17)"/><path class="cls-2" d="M1333.64,1046.79l.06,32.49" transform="translate(62.66 129.17)"/><path class="cls-6" d="M1131.18,1024.05" transform="translate(62.66 129.17)"/></g></g></g><path class="cls-2" d="M657.46-18.33V-81.52A32.57,32.57,0,0,1,690-114.17a32.57,32.57,0,0,1,32.49,32.65V44.86a32.49,32.49,0,1,1-65,0V29.6" transform="translate(62.66 129.17)"/><path class="cls-1" d="M596.81-104.42V60c0,49.14,40,89,89.35,89s89.35-39.85,89.35-89V21.16" transform="translate(62.66 129.17)"/><path class="cls-2" d="M532.92,61.49A77,77,0,0,0,456-15.62" transform="translate(62.66 129.17)"/><path class="cls-3" d="M454.94,93.77a42.24,42.24,0,1,0-84.47,0V112.2" transform="translate(62.66 129.17)"/><path class="cls-1" d="M855.07,48.28l.07,32.49" transform="translate(62.66 129.17)"/><path class="cls-3" d="M855.07-13.45,855.14,19" transform="translate(62.66 129.17)"/><path class="cls-2" d="M1753.45,896.61c0-59.78,53.33-108.24,119.13-108.24a127.61,127.61,0,0,1,62.32,16m56.81,166v-73.7a101.24,101.24,0,0,0-22.39-63.18" transform="translate(62.66 129.17)"/><path class="cls-3" d="M1673.85,1057h-3.39a43.86,43.86,0,0,0,0,87.72h101a43.86,43.86,0,0,0,0-87.72h-3.4" transform="translate(62.66 129.17)"/><path class="cls-1" d="M1898.57,1149V984.3a58.48,58.48,0,0,0-117,0v25.49" transform="translate(62.66 129.17)"/><path class="cls-5" d="M1535.77,896.66" transform="translate(62.66 129.17)"/><path class="cls-7" d="M1521.87,841.43" transform="translate(62.66 129.17)"/><path class="cls-1" d="M1588.84,896.66h46.72c47.17,0,85.4,38.4,85.4,85.77v87.51" transform="translate(62.66 129.17)"/><ellipse class="cls-3" cx="1696.98" cy="1111.93" rx="29.24" ry="28.7"/></svg>